# xmcd CD database file
#
# Track frame offsets:
#	150
#	30209
#	56061
#	84332
#	105217
#	131855
#	156633
#	179564
#	207242
#	229886
#	244205
#	273209
#	285724
#	302868
#	329294
#
# Disc length: 4496 seconds
#
# Revision: 1
# Processed by: cddbd v1.5.2PL0 Copyright (c) Steve Scherf et al.
# Submitted via: CDex 1.77
#
DISCID=d4118e0f
DTITLE=Knopfler, Mark - Tracker
DYEAR=2015
DGENRE=Country
TTITLE0=Laughs And Jokes And Drinks And Smokes
TTITLE1=Basil
TTITLE2=River Towns
TTITLE3=Skydiver
TTITLE4=Mighty Man
TTITLE5=Broken Bones
TTITLE6=Long Cool Girls
TTITLE7=Lights Of Taormina
TTITLE8=Silver Eagle
TTITLE9=Beryl
TTITLE10=Wherever I Go
TTITLE11=38 Special
TTITLE12=My Heart Has Never Changed
TTITLE13=Terminal Of Tribute To
TTITLE14=Heart Of Oak
EXTD=EAN 602547169792 YEAR: 2015
EXTT0=
EXTT1=
EXTT2=
EXTT3=
EXTT4=
EXTT5=
EXTT6=
EXTT7=
EXTT8=
EXTT9=
EXTT10=
EXTT11=
EXTT12=
EXTT13=
EXTT14=
PLAYORDER=
